<?xml version="1.0" encoding="utf-8"?>
<!-- Svg Vector Icons : http://www.onlinewebfonts.com/icon -->
<!DOCTYPE svg PUBLIC "-//W3C//DTD SVG 1.1//EN" "http://www.w3.org/Graphics/SVG/1.1/DTD/svg11.dtd">
<svg version="1.1" xmlns="http://www.w3.org/2000/svg" xmlns:xlink="http://www.w3.org/1999/xlink" x="0px" y="0px" viewBox="0 0 1000 1000" enable-background="new 0 0 1000 1000" xml:space="preserve">
<metadata> Svg Vector Icons : http://www.onlinewebfonts.com/icon </metadata>
<g><g transform="translate(0.000000,512.000000) scale(0.100000,-0.100000)"><path d="M387,4995.4c-117-36.4-226.2-149.5-262.7-268.4c-23-84.4-26.8-594.3-23-3834.3l5.8-3738.4l42.2-76.7c51.8-95.9,111.2-153.4,201.3-191.7c63.3-24.9,377.7-28.8,2776-28.8h2703.1L5684-2966.5c-327.8,393-529.1,807.1-634.6,1299.8c-49.8,232-49.8,880,0,1111.9c184.1,858.9,743.9,1608.5,1485.8,1982.3l99.7,49.8v368.1c0,218.5-9.6,396.8-23,444.8c-19.2,67.1-195.5,253.1-1288.3,1349.7C4606.5,4360.8,4018,4934,3970.1,4962.8l-86.3,51.8l-1706.2,3.8C770.4,5022.2,456,5018.4,387,4995.4z M4813.6,3174.1l1025.7-1025.7H4807.8H3778.3v1025.7c0,563.6,1.9,1025.7,5.7,1025.7C3786,4199.8,4250,3737.7,4813.6,3174.1z M2551.4,2781.1v-210.9H1727H902.7v210.9V2992H1727h824.4V2781.1z M5005.3,1132.3V921.5H2954H902.7v210.9v210.9H2954h2051.3V1132.3z M4200.1-497.2v-210.9H2551.4H902.7v210.9v210.9h1648.7h1648.7V-497.2z"/><path d="M7489.9,890.8c-425.6-84.4-780.3-278-1087-596.2c-569.4-588.6-724.7-1414.8-412.2-2183.6c113.1-276.1,379.6-634.6,584.7-784.1l78.6-57.5v-868.5c0-740,3.8-878,28.8-939.4c76.7-178.3,262.7-272.2,460.1-230c88.2,19.2,118.9,42.2,408.3,327.8l310.6,308.7l293.3-289.5c159.1-159.1,320.2-302.9,356.6-322.1c168.7-84.4,406.4-15.3,509.9,153.4l57.5,92l5.7,880l5.8,878l182.1,176.4c195.5,187.9,352.8,406.4,448.6,615.4c335.5,741.9,189.8,1633.4-366.2,2225.8c-297.2,318.2-707.4,542.6-1123.4,615.4C8032.5,927.2,7670.1,927.2,7489.9,890.8z M7681.6-355.4c65.2-40.3,107.4-84.3,143.8-155.3c51.8-97.8,51.8-97.8,63.3-42.2c15.3,76.7,162.9,220.5,253,245.4c174.5,47.9,333.6,5.8,442.9-118.8c230.1-262.6,72.9-642.2-565.5-1351.6L7875.2-1937l-93.9,92c-126.5,122.7-385.3,437.1-502.3,607.7c-237.7,347-289.5,565.6-174.5,749.6C7227.3-288.3,7480.3-230.7,7681.6-355.4z"/></g></g>
</svg>